<svg width="26" height="20" viewBox="0 0 26 20" fill="none" xmlns="http://www.w3.org/2000/svg">
<path d="M9.30837 18.6676C4.16723 18.6676 -0.000488281 14.4887 -0.000488281 9.3338C-0.000488281 4.17889 4.16723 0 9.30837 0V18.6676Z" fill="black"/>
<path fill-rule="evenodd" clip-rule="evenodd" d="M9.30866 9.32683H9.30811L14.6786 -6.06196e-05L25.4196 -6.10352e-05L20.0569 9.31325L20.0495 9.3269L25.9997 20L18.9242 9.47483L24.8084 20L17.7329 9.47482L23.6171 20L16.5416 9.47482L22.4258 20L15.3503 9.47482L21.2345 20L14.159 9.47483L20.0432 20L12.9677 9.47482L18.8519 20L11.7764 9.47482L17.6606 20L10.5851 9.47482L16.4693 20L9.30862 9.3269L9.30866 9.32683Z" fill="black"/>
</svg>
