<svg width="28" height="20" viewBox="0 0 28 20" fill="none" xmlns="http://www.w3.org/2000/svg">
<g clip-path="url(#clip0_3913_12458)">
<path d="M24.7635 5.54009C24.7034 5.54009 24.6473 5.51609 24.6032 5.47609L22.348 3.30409C22.312 3.27609 22.2799 3.24409 22.2479 3.20809C22.1798 3.13209 22.1117 3.05209 22.0476 2.97209C21.9595 2.86009 21.8754 2.74409 21.8032 2.62009C21.7231 2.48409 21.659 2.33609 21.611 2.18409C21.5549 2.02409 21.5269 1.85609 21.5269 1.68409C21.5269 1.15609 21.6791 0.740094 21.9875 0.444094C22.2919 0.152094 22.7125 9.375e-05 23.2533 9.375e-05C23.4015 9.375e-05 23.5538 0.0240938 23.71 0.0760937C23.8662 0.128094 24.0104 0.196094 24.1426 0.284094C24.2748 0.372094 24.3909 0.452094 24.4871 0.532094C24.5832 0.608094 24.6754 0.692094 24.7635 0.776094C24.8516 0.688094 24.9397 0.608094 25.0359 0.532094C25.148 0.444094 25.2642 0.360094 25.3804 0.284094C25.5166 0.196094 25.6608 0.124094 25.813 0.0760937C25.9692 0.0240938 26.1214 -0.00390625 26.2696 -0.00390625C26.8104 -0.00390625 27.231 0.144094 27.5394 0.444094C27.8439 0.744094 28.0001 1.15609 28.0001 1.68409C28.0001 2.21609 27.7237 2.75609 27.1709 3.30809L24.9197 5.47209C24.8796 5.52009 24.8236 5.54409 24.7635 5.54009Z" fill="#FF0000"/>
<path opacity="0.6" d="M18.7148 2.91601L12.8624 1.31201L10.8035 5.90401L18.7148 2.91601ZM13.1188 14.24L7.76314 12.328L4.61865 20.028L13.1188 14.24Z" fill="#ABAAA7"/>
<path d="M-0.0280762 9.54395L13.1187 14.24L15.2738 4.19995L-0.0280762 9.54395Z" fill="#ABAAA7"/>
</g>
<defs>
<clipPath id="clip0_3913_12458">
<rect width="28" height="20" fill="white"/>
</clipPath>
</defs>
</svg>
